<svg id="Warstwa_1" data-name="Warstwa 1" xmlns="http://www.w3.org/2000/svg" viewBox="0 0 1089.13 288.01"><defs><style>.cls-1{fill:none;stroke:#000;stroke-miterlimit:10;}.cls-2{font-size:194px;font-family:Lovelo-LineBold, Lovelo;font-weight:700;}</style></defs><title>logo3</title><path class="cls-1" d="M207.94,437.7" transform="translate(-60.02 -282.29)"/><path class="cls-1" d="M180,500.87" transform="translate(-60.02 -282.29)"/><path class="cls-1" d="M120.4,437.7" transform="translate(-60.02 -282.29)"/><path class="cls-1" d="M148.39,500.87" transform="translate(-60.02 -282.29)"/><path class="cls-1" d="M163.9,391.4" transform="translate(-60.02 -282.29)"/><path class="cls-1" d="M257.28,433.46" transform="translate(-60.02 -282.29)"/><path d="M353.62,433.46,335.13,476c-5.89,13.54-11.53,37.63-29.61,37.63-17.81,0-23.18-22.85-29-36.2l-19.22-43.93" transform="translate(-60.02 -282.29)"/><path d="M115.8,433.46,134.29,476c5.9,13.54,11.53,37.63,29.61,37.63,17.82,0,23.19-22.85,29-36.2l19.22-43.93" transform="translate(-60.02 -282.29)"/><path class="cls-1" d="M361.75,283.8" transform="translate(-60.02 -282.29)"/><path class="cls-1" d="M409.79,376.69" transform="translate(-60.02 -282.29)"/><path d="M370.27,366.46c2.54-1.34,30.8-16.69,37.1-45,1.06-4.77,4.26-19.19-.48-30.67-.89-2.16-3.94-8.75-4.4-8.47-.17.11,0,1.06.23,1.85a44.39,44.39,0,0,1-.28,21.56c-.13.48-.32,1.18-.62,2.07a39.93,39.93,0,0,1-8.72,13.64c-4.83,4.93-19.7,14.06-40.94,21.55a72.5,72.5,0,0,1,10.37,11.12A83.36,83.36,0,0,1,370.27,366.46Z" transform="translate(-60.02 -282.29)"/><text class="cls-2" transform="translate(381 235.05)">RODEO</text><path d="M99.16,366.46c-2.54-1.34-30.81-16.69-37.1-45-1.06-4.77-4.26-19.19.48-30.67.89-2.16,3.93-8.75,4.4-8.47.16.11,0,1.06-.24,1.85A44.39,44.39,0,0,0,67,305.7c.14.48.32,1.18.63,2.07a40,40,0,0,0,8.71,13.64C81.16,326.34,96,335.47,117.26,343a73.5,73.5,0,0,0-10.37,11.12A83.22,83.22,0,0,0,99.16,366.46Z" transform="translate(-60.02 -282.29)"/><path d="M305.52,328.44a63.57,63.57,0,0,0-34.93,10.38l.07.11a66.63,66.63,0,0,1-71.9,0H199a63.9,63.9,0,1,0,13.07,95.39l.08.07a30,30,0,0,1,45.13,0l.08-.07a63.9,63.9,0,1,0,48.16-105.88ZM203.33,402.81H175.69v27.64h-26V402.81H122v-26h27.64V349.15h26v27.64h27.64Zm102.12-52.73a14.87,14.87,0,1,1-14.86,14.86A14.86,14.86,0,0,1,305.45,350.08Zm-25.78,55.51a14.86,14.86,0,1,1,14.86-14.86A14.86,14.86,0,0,1,279.67,405.59Zm25.78,25.79a14.87,14.87,0,1,1,14.86-14.86A14.86,14.86,0,0,1,305.45,431.38Zm25.79-25.79a14.86,14.86,0,1,1,14.86-14.86A14.86,14.86,0,0,1,331.24,405.59Z" transform="translate(-60.02 -282.29)"/></svg>