<?xml version="1.0" encoding="iso-8859-1"?>
<!-- Generator: Adobe Illustrator 16.0.0, SVG Export Plug-In . SVG Version: 6.00 Build 0)  -->
<!DOCTYPE svg PUBLIC "-//W3C//DTD SVG 1.1//EN" "http://www.w3.org/Graphics/SVG/1.1/DTD/svg11.dtd">
<svg version="1.1" id="Capa_1" xmlns="http://www.w3.org/2000/svg" xmlns:xlink="http://www.w3.org/1999/xlink" x="0px" y="0px"
	 width="593.133px" height="593.133px" viewBox="0 0 593.133 593.133" style="enable-background:new 0 0 593.133 593.133;"
	 xml:space="preserve">
<g>
	<path d="M548.68,411.848c-7.994-3.691-20.693-24.796-22.549-29.396c0.421-0.688,1.043-1.597,1.77-2.687
		c6.168-9.295,20.578-31.06,6.693-50.061c-1.186-1.625-3.28-2.313-5.202-1.769c-1.94,0.573-3.309,2.285-3.423,4.303
		c-1.281,21.42-16.62,31.92-19.986,33.966c-6.072,1.014-12.546,1.147-15.873,0.861c-2.592-8.339-6.551-24.738-3.51-32.848
		c0.89-2.361,1.683-5.384-0.058-7.889c-0.898-1.291-2.897-2.324-4.466-2.324c-7.659,0-21.009,20.952-22.52,42.792
		c-5.947,0.402-21.907-0.354-56.007-13.311c-0.784-2.917-2.248-5.642-4.266-7.459l-29.452-26.631
		c-3.921-3.538-6.11-10.576-4.905-15.73l5.823-40.096l77.667,31.872c2.381,0.976,4.838,1.435,7.258,1.435
		c7.525,0,14.669-4.476,17.71-11.867c4.006-9.773-0.66-20.942-10.434-24.949l-71.402-29.309l-4.37-46.665
		c-0.325-3.548-1.674-6.732-3.634-9.41c-0.918-5.097-5.719-9.247-10.901-9.295l-53.282-0.516c-1.358-0.01-2.668,0.268-3.901,0.755
		l-38.222-20.148l-24.069-44.016c-5.891-10.777-19.393-14.726-30.169-8.836c-0.277,0.153-0.507,0.373-0.775,0.536
		c-12.393-13.215-25.78-17.193-27.004-17.509c-0.153-0.019-15.08-2.199-22.768-11.465c-7.468-9.008-15.683-30.323-17.414-34.96
		c0.593-14.315-1.645-26.852-10.184-28.965C144.119,0.086,143.382,0,142.646,0c-14.334,0-26.278,32.904-31.068,52.354
		c-5.202,21.104-9.945,57.806,5.25,61.573c0.708,0.172,1.444,0.258,2.19,0.258c14.334,0,26.278-32.904,31.069-52.354
		c0.965-3.901,1.903-8.348,2.715-13.015c3.5,7.698,7.899,16.189,12.278,21.468c10.021,12.078,27.798,14.688,28.143,14.688h0.01
		c0.153,0.048,11.446,3.519,22.042,14.812c-4.466,6.665-5.24,15.482-1.128,23.007l27.282,49.888
		c2.104,3.834,5.278,6.961,9.142,8.998l48.319,25.475c1.511,0.794,3.079,1.349,4.657,1.769l-7.803,55.157
		c-15.702-17.184-32.14-30.916-53.11-33.479c-4.791-12.728-25.771-60.349-72.599-62.577c-36.988-1.711-65.819,11.791-79.178,19.661
		c-3.328,1.96-5.412,5.011-5.881,8.587c-0.488,3.777,0.937,7.659,3.882,10.662c4.571,4.628,10.863,11.752,14.917,19.374
		c3.882,7.287,12.125,9.266,18.255,4.293l16.916-13.684c0.22-0.201,5.499-4.829,16.142-4.829c6.168,0,12.89,1.568,20.005,4.657
		c18.886,8.214,24.537,16.094,25.943,21.257c1.052,3.863-0.134,6.818-0.793,8.061c-5.259,3.06-27.731,16.878-38.929,35.257
		c-2.285,3.749-4.513,4.523-7.153,4.523c-3.566,0-8.166-1.568-13.502-3.385c-7.459-2.543-16.744-5.699-27.292-5.699
		c-5.403,0-10.777,0.841-15.969,2.505l-18.322,5.804c-12.116,3.825-21.659,6.847-30.083,9.773
		c-12.355,4.294-19.145,18.226-14.956,31.69c3.108,9.917,11.972,16.333,22.587,16.333c2.381,0,4.771-0.344,7.095-1.004
		c11.15-3.165,28.056-6.952,45.25-6.952c18.628,0,33.689,4.38,44.762,13.015c14.717,11.475,27.836,20.11,40.526,28.458
		c21.238,13.98,41.291,27.177,63.658,51.035l9.104,9.678c31.795,33.755,61.831,65.637,76.07,99.842
		c6.11,14.621,12.278,27.731,18.341,38.977c5.288,9.812,18.513,17.222,30.763,17.222c0.927,0,1.826-0.038,2.725-0.124l3.815-0.373
		c6.637-0.641,12.326-3.959,15.606-9.104c3.175-4.981,3.787-11.293,1.654-17.299c-4.476-12.632-9.219-23.667-14.114-32.789
		c-8.195-15.3-6.914-24.031-6.092-26.871c2.123-0.918,6.359-2.457,10.825-2.457c8.014,0,13.091,5.011,15.539,15.338
		c4.198,17.748,14.258,35.869,21.955,47.946c6.388,10.002,21.344,17.958,34.043,18.121l12.813,0.153c7,0,11.389-2.037,13.072-6.072
		c1.73-4.16-0.096-8.97-5.403-14.315c-13.684-13.741-29.987-36.347-29.987-66.048c0-7.727-0.153-14.363-0.269-20.062
		c-0.315-14.525-0.516-23.284,2.305-26.163c2.248-2.314,8.97-2.878,22.511-2.562c35.955,0.87,62.472-6.244,63.523-6.541
		c1.932-0.525,3.337-2.199,3.5-4.198C560.403,437.504,561.703,417.862,548.68,411.848z M140.8,59.546
		c-7.631,30.925-18.465,44.609-21.678,45.068c-2.629-1.913-5.861-19.077,1.75-49.983c7.717-31.269,18.714-44.915,21.592-45.125
		C145.104,11.083,148.508,28.276,140.8,59.546z"/>
	<path d="M410.769,41.501c0.287-12.565-9.38-18.264-21.602-12.728l-25.838,11.695l-27.138-14.774
		c-11.771-6.417-23.715-1.004-26.68,12.078l-6.799,30.131l-21.439,9.715c-12.23,5.537-16.495,17.538-9.543,26.823
		c6.971,9.276,22.529,12.307,34.75,6.771l1.778-0.803c3.682,14.659,14.621,27.081,30.15,31.69
		c23.419,6.933,48.014-6.426,54.937-29.835c3.95-13.349,1.147-26.957-6.187-37.581l0.946-0.421
		C400.317,68.735,410.473,54.066,410.769,41.501z"/>
</g>
<g>
</g>
<g>
</g>
<g>
</g>
<g>
</g>
<g>
</g>
<g>
</g>
<g>
</g>
<g>
</g>
<g>
</g>
<g>
</g>
<g>
</g>
<g>
</g>
<g>
</g>
<g>
</g>
<g>
</g>
</svg>
